<?xml version="1.0" encoding="UTF-8"?>
<svg width="700pt" height="700pt" version="1.1" viewBox="0 0 700 700" fill="#fbbf24"
    xmlns="http://www.w3.org/2000/svg">
    <g>
        <path d="m244.56 188.79v-0.42187h-0.74609c0.20703 0.097656 0.53516 0.30469 0.74609 0.42187z" />
        <path d="m534.87 156.85-0.74609 0.41797h0.62891z" />
        <path
            d="m389.08 368.74c30.777-29.82 45.734-66.012 53.27-105.58 7.4219-39.152 10.289-85.633 15.074-123.92-0.83984 0.42188-1.7031 0.83984-2.543 1.2852 0-0.42188 0.11719-0.83984 0.11719-1.2852-10.711 2.7539-22.492 4.9922-35.117 6.9062-17.289 2.543-36.285 4.1289-56.352 4.668-13.578 0.32812-27.789 0.11719-42.234-0.62891-26.551-1.5-54.129-4.8828-81.828-10.949 1.9141 15.168 3.5 31.617 5.0859 48.395 0 0.21094 0 0.53516 0.11719 0.74609v0.42188c2.543 25.246 5.4141 51.031 9.7539 74.387 7.5352 39.691 22.398 75.855 53.27 105.58 15.074 14.652 31.617 36.609 14 62.066-0.11719 0.21094-0.21094 0.42188-0.42187 0.53516-0.95703 1.375-0.62891 4.7852 0.42187 6.3711 12.625 18.457-1.0508 30.777-10.289 43.82-3.6172 5.2031-8.375 9.6602-15.492 17.711h5.2969 98.582l-0.11719-0.11719c0.42188 0 0.95703 0.11719 1.375 0.11719-7.1172-8.0742-11.875-12.531-15.492-17.711-9.2383-13.16-22.914-25.363-10.289-43.82 1.0508-1.5859 1.375-4.9922 0.42188-6.3711-18.457-25.691-1.7969-47.855 13.391-62.625zm-95.293-112.56c-0.83984 23.988 1.2852 47.949 6.2539 71.191-3.8281-8.7969-7.3281-17.617-10.5-26.531-1.4922-4.1289-2.9648-8.2852-4.2461-12.414-4.2461-13.16-7.8633-26.531-10.617-39.992-0.74609-3.4062-1.375-6.7891-1.9141-10.195-3.5938-20.488-5.3906-41.488-5.2969-63.234 0-3.6172 0.11719-7.2109 0.21094-10.922 3.5 0.11719 6.6719 0.21094 9.6602 0.32812 0.95703 0 2.0078 0 2.9648 0.11719 1.9141 0 3.7109 0.11719 5.5078 0.11719 9.0312 0.11719 16.988 0.11719 27.488 0.74609-12.09 29.145-18.344 59.898-19.512 90.789z" />
        <path
            d="m474.06 168.63h51.148c1.2852 60.598-18.992 132.54-78.938 173.9 69.93-16.66 102.92-106.96 95.922-182.82-0.11719-0.95703-0.21094-2.0078-0.32812-2.9648-2.543 0.11719-4.875 0.32812-7.1172 0.42188h-0.62891c-0.83984 0-1.7969 0.11719-2.6602 0.11719-43.07 2.6367-40.832 1.3789-57.398 11.34z" />
        <path
            d="m253.8 342.54c-59.941-41.277-80.219-113.33-78.938-173.9h49.234 1.9141c-17.828-10.711-13.789-8.4922-67.898-11.875-5.9766 56.32 10.379 121.38 47.715 158.41 13.367 13.254 29.398 22.914 47.973 27.371z" />
        <path
            d="m333.9 46.715 8.9141 17.824 8.7969-17.941 19.742-2.9648-14.328-13.906 2.4492-14.957 0.83984-4.7578-17.711 9.4258-17.73-9.2188 3.5234 19.625-14.328 14 4.9688 0.74609z" />
        <path
            d="m258.35 80.125 5.3203 10.617 5.0859-10.617 11.668-1.7969-8.4961-8.1641 1.168-6.9062 0.86328-4.668-10.5 5.5312-10.406-5.5312 2.0078 11.691-8.3789 8.2578 4.9922 0.63281z" />
        <path
            d="m409.34 78.539 11.668 1.5859 5.3203 10.617 5.2031-10.617 11.664-1.7969-8.4922-8.1641 1.168-6.9062 0.74609-4.668-10.406 5.5312-10.5-5.5312 2.0078 11.246 0.11328 0.44531z" />
        <path
            d="m348.32 549.96c23.031 0.32812 77.465-2.7539 89.438-7.8633 0 0 4.3398-9.2383-11.129-7.4219 0 0 8.5859-25.246-14.211-25.898h-103.97l-24.199 0.003906c-22.82 0.62891-14.211 25.898-14.211 25.898-15.375-1.7969-11.129 7.4219-11.129 7.4219 0.62891 0.21094 1.375 0.53516 2.2148 0.74609 14.75 4.0586 65.57 7.4414 87.199 7.1133z" />
    </g>
</svg>