<?xml version="1.0" encoding="UTF-8"?>
<svg width="700pt" height="700pt" version="1.1" viewBox="0 0 700 700"
    xmlns="http://www.w3.org/2000/svg" xmlns:xlink="http://www.w3.org/1999/xlink">
    <g>
        <path d="m306.32 81.312h87.359v11.031h-87.359z" />
        <path
            d="m375.65 168.84c0.054687-0.054688 0.11328-0.16797 0.16797-0.28125 0.39062-0.67188 0.78516-1.3984 1.1211-2.0703l3.9219-8.1211c4.7617-9.9102 7.2812-21 7.2812-32.031v-24.641h-76.277v24.641c0 11.031 2.5195 22.121 7.2812 32.031l3.9219 8.1211c0.28125 0.61719 0.61719 1.2305 0.95312 1.8477 0.054688 0.11328 0.16797 0.22266 0.22266 0.33594 5.3203 9.0156 15.176 14.727 25.762 14.727 10.523 0.058593 20.324-5.5977 25.645-14.559zm-9.1836-6.9453c-0.83984 0.61719-1.793 0.89453-2.7422 0.89453-0.95312 0-1.9023-0.28125-2.7422-0.89453l-10.98-8.0078-10.977 8.0078c-1.625 1.1758-3.8086 1.1758-5.4336 0s-2.2969-3.3047-1.6797-5.207l4.1992-12.938-10.977-8.0078c-1.625-1.1758-2.2969-3.3047-1.6797-5.207s2.4062-3.1914 4.4258-3.1914h13.609l4.1992-12.938c0.61719-1.9023 2.4062-3.1914 4.4258-3.1914 2.0156 0 3.8086 1.2891 4.4258 3.1914l4.1992 12.938h13.609c2.0156 0 3.8086 1.2891 4.4258 3.1914 0.61719 1.9023-0.054688 4.0312-1.6797 5.207l-10.977 8.0078 4.1992 12.938c0.44531 1.9609-0.22656 4.0312-1.8516 5.207z" />
        <path
            d="m302.57 112.79v-9.2969h-17.586c-5.3203 0-9.6328 4.3125-9.6328 9.6328 0 11.258 2.9688 22.398 8.5664 32.145 5.6016 9.8008 13.719 17.922 23.465 23.633l9.3516 5.4336c-0.78516-1.2305-1.5117-2.5195-2.1289-3.8633l-3.8008-8.0703c-0.50391-1.0625-1.0078-2.1289-1.457-3.2461-7.1133-4.7031-13.047-11.031-17.305-18.48-4.8164-8.3438-7.3359-17.863-7.3359-27.551 0-0.16797 0.16797-0.33594 0.33594-0.33594z" />
        <path
            d="m390.66 159.27c-0.50391 1.0625-0.95312 2.0703-1.457 3.1328l-3.9219 8.1211c-0.67188 1.3984-1.3984 2.7422-2.2383 4.0312l9.6328-5.6562c19.711-11.535 31.922-32.871 31.922-55.664v-0.16797c0-2.5742-1.0078-4.9844-2.8555-6.832-1.793-1.793-4.2578-2.8008-6.7773-2.8008l-17.586 0.054687v9.2969l17.586-0.054688c0.054687 0 0.16797 0 0.22266 0.11328 0.11328 0.11328 0.11328 0.22266 0.11328 0.22266v0.16797c0.054687 18.48-9.3516 35.84-24.641 46.035z" />
        <path
            d="m308 240.69v9.4648h84v-9.4648c0-1.9023-1.5664-3.4727-3.4727-3.4727h-77.055c-1.9062-0.054688-3.4727 1.5117-3.4727 3.4727z" />
        <path
            d="m344.4 192.36c-1.625 13.105-5.4883 25.031-11.48 35.559h34.16c-6.0469-10.527-9.9102-22.457-11.48-35.559-1.8477 0.28125-3.6953 0.39062-5.6016 0.39062-1.8984 0.003906-3.75-0.10938-5.5977-0.39062z" />
        <path
            d="m583.86 50.289c2.2969 0 4.1445-1.8477 4.1445-4.1445s-1.8477-4.1445-4.1445-4.1445h-48.273c-2.2969 0-4.1445 1.8477-4.1445 4.1445v30.574h-44.184c-2.2969 0-4.1445 1.8477-4.1445 4.1445l0.003906 63.059h-44.184c-2.2969 0-4.1445 1.8477-4.1445 4.1445v127.85h-169.68v-127.91c0-2.2969-1.8477-4.1445-4.1445-4.1445h-44.184v-63c0-2.2969-1.8477-4.1445-4.1445-4.1445h-44.074v-30.574c0-2.2969-1.8477-4.1445-4.1445-4.1445h-48.27c-2.2969 0-4.1445 1.8477-4.1445 4.1445s1.8477 4.1445 4.1445 4.1445h44.184v58.52h-44.184c-2.2969 0-4.1445 1.8477-4.1445 4.1445s1.8477 4.1445 4.1445 4.1445h48.273c2.2969 0 4.1445-1.8477 4.1445-4.1445v-27.945h40.039v124.99h-40.043v-30.238c0-2.2969-1.8477-4.1445-4.1445-4.1445h-48.27c-2.2969 0-4.1445 1.8477-4.1445 4.1445s1.8477 4.1445 4.1445 4.1445h44.184v58.574h-44.184c-2.2969 0-4.1445 1.8477-4.1445 4.1445s1.8477 4.1445 4.1445 4.1445h48.273c2.2969 0 4.1445-1.8477 4.1445-4.1445v-28.281h44.184c2.2969 0 4.1445-1.8477 4.1445-4.1445l-0.003906-62.047h40.039v127.51 0.33594 0.33594 127.51h-40.039v-62.047c0-2.2969-1.8477-4.1445-4.1445-4.1445h-44.184v-28.281c0-2.2969-1.8477-4.1445-4.1445-4.1445h-48.27c-2.2969 0-4.1445 1.8477-4.1445 4.1445s1.8477 4.1445 4.1445 4.1445h44.184v58.52h-44.184c-2.2969 0-4.1445 1.8477-4.1445 4.1445s1.8477 4.1445 4.1445 4.1445h48.273c2.2969 0 4.1445-1.8477 4.1445-4.1445v-30.238h40.039v124.99h-40.043v-27.945c0-2.2969-1.8477-4.1445-4.1445-4.1445h-48.27c-2.2969 0-4.1445 1.8477-4.1445 4.1445 0 2.2969 1.8477 4.1445 4.1445 4.1445h44.184v58.52h-44.184c-2.2969 0-4.1445 1.8477-4.1445 4.1445s1.8477 4.1445 4.1445 4.1445h48.273c2.2969 0 4.1445-1.8477 4.1445-4.1445v-30.574h44.184c2.2969 0 4.1445-1.8477 4.1445-4.1445l-0.003906-63.004h44.184c2.2969 0 4.1445-1.8477 4.1445-4.1445v-127.79h169.68v127.85c0 2.2969 1.8477 4.1445 4.1445 4.1445h44.184v63c0 2.2969 1.8477 4.1445 4.1445 4.1445h44.184v30.574c0 2.2969 1.8477 4.1445 4.1445 4.1445h48.273c2.2969 0 4.1445-1.8477 4.1445-4.1445s-1.8477-4.1445-4.1445-4.1445h-44.184v-58.52h44.184c2.2969 0 4.1445-1.8477 4.1445-4.1445s-1.8477-4.1445-4.1445-4.1445h-48.273c-2.2969 0-4.1445 1.8477-4.1445 4.1445v27.945h-40.039v-125.05h40.039v30.238c0 2.2969 1.8477 4.1445 4.1445 4.1445h48.273c2.2969 0 4.1445-1.8477 4.1445-4.1445s-1.8477-4.1445-4.1445-4.1445h-44.184v-58.52h44.184c2.2969 0 4.1445-1.8477 4.1445-4.1445s-1.8477-4.1445-4.1445-4.1445h-48.273c-2.2969 0-4.1445 1.8477-4.1445 4.1445v28.281h-44.184c-2.2969 0-4.1445 1.8477-4.1445 4.1445v61.992h-40.039v-127.46-0.33594-0.33594-127.51h40.039v61.992c0 2.2969 1.8477 4.1445 4.1445 4.1445h44.184v28.281c0 2.2969 1.8477 4.1445 4.1445 4.1445h48.273c2.2969 0 4.1445-1.8477 4.1445-4.1445 0-2.2969-1.8477-4.1445-4.1445-4.1445h-44.184v-58.523h44.184c2.2969 0 4.1445-1.8477 4.1445-4.1445 0-2.2969-1.8477-4.1445-4.1445-4.1445h-48.273c-2.2969 0-4.1445 1.8477-4.1445 4.1445v30.238h-40.039v-124.99h40.039v27.945c0 2.2969 1.8477 4.1445 4.1445 4.1445h48.273c2.2969 0 4.1445-1.8477 4.1445-4.1445s-1.8477-4.1445-4.1445-4.1445h-44.184v-58.52z" />
        <use x="70" y="644" xlink:href="#x" />
        <use x="90.550781" y="644" xlink:href="#c" />
        <use x="104.359375" y="644" xlink:href="#a" />
        <use x="123.347656" y="644" xlink:href="#e" />
        <use x="142.242188" y="644" xlink:href="#b" />
        <use x="155.628906" y="644" xlink:href="#a" />
        <use x="174.617188" y="644" xlink:href="#i" />
        <use x="204.410156" y="644" xlink:href="#h" />
        <use x="224.453125" y="644" xlink:href="#g" />
        <use x="252.453125" y="644" xlink:href="#f" />
        <use x="275.1875" y="644" xlink:href="#w" />
        <use x="291.855469" y="644" xlink:href="#v" />
        <use x="317.722656" y="644" xlink:href="#e" />
        <use x="346.363281" y="644" xlink:href="#u" />
        <use x="368.0625" y="644" xlink:href="#t" />
        <use x="391.304688" y="644" xlink:href="#s" />
        <use x="70" y="672" xlink:href="#r" />
        <use x="82.183594" y="672" xlink:href="#c" />
        <use x="95.992188" y="672" xlink:href="#d" />
        <use x="115.226562" y="672" xlink:href="#q" />
        <use x="154.152344" y="672" xlink:href="#b" />
        <use x="167.535156" y="672" xlink:href="#p" />
        <use x="187.46875" y="672" xlink:href="#a" />
        <use x="216.207031" y="672" xlink:href="#o" />
        <use x="239.640625" y="672" xlink:href="#d" />
        <use x="258.878906" y="672" xlink:href="#n" />
        <use x="278.8125" y="672" xlink:href="#m" />
        <use x="308.492188" y="672" xlink:href="#l" />
        <use x="329.015625" y="672" xlink:href="#c" />
        <use x="342.820312" y="672" xlink:href="#d" />
        <use x="362.058594" y="672" xlink:href="#k" />
        <use x="371.65625" y="672" xlink:href="#a" />
        <use x="390.648438" y="672" xlink:href="#j" />
        <use x="407.242188" y="672" xlink:href="#b" />
    </g>
</svg>