<svg width="56" height="56" version="1.1" viewBox="0 0 700 700" xmlns="http://www.w3.org/2000/svg"
    xmlns:xlink="http://www.w3.org/1999/xlink">
    <g fill="#ffffff">
        <path d="m189.86 117.33-39.707-1.832 27.379 65.004z" />
        <path
            d="m418.01 332.26-0.011719-0.015624-30.855-32.719 39.477 140.57 17.051 60.777 63.98-73.574z" />
        <path d="m219.83 280.95 148.54 5.1367-184.36-90.211z" />
        <path d="m125.38 137.94 29.625 3.5391-10.09-23.961z" />
        <path d="m431.76 338.67 65.121 69.047 23.816-29.086z" />
        <path d="m240.87 157.07-45.793-37.27-12.742 65.34z" />
        <path d="m305.68 63.699-46.238 7.3711 28.906 9.3242z" />
        <path
            d="m247.23 160.23-62.289 29.863 193.6 94.723-1.3555-186.9-17.602 8.4375-0.023437 0.011719-112.3 53.844z" />
        <path d="m353.72 102.96-39.703-39.508-82.129 79.09 14.559 11.855z" />
        <path d="m418.96 433.55-39.73-141.5-152.61-5.2617z" />
        <path d="m384.11 281.26 88.488-113.5-89.812-68.586z" />
        <path d="m477.07 164.13 114.39-38.254-201.34-28.133z" />
        <use x="70" y="644" xlink:href="#w" />
        <use x="90.550781" y="644" xlink:href="#a" />
        <use x="104.359375" y="644" xlink:href="#b" />
        <use x="123.347656" y="644" xlink:href="#e" />
        <use x="142.242188" y="644" xlink:href="#d" />
        <use x="155.628906" y="644" xlink:href="#b" />
        <use x="174.617188" y="644" xlink:href="#j" />
        <use x="204.410156" y="644" xlink:href="#f" />
        <use x="224.453125" y="644" xlink:href="#i" />
        <use x="252.453125" y="644" xlink:href="#h" />
        <use x="270.292969" y="644" xlink:href="#v" />
        <use x="279.890625" y="644" xlink:href="#g" />
        <use x="299.824219" y="644" xlink:href="#u" />
        <use x="309.421875" y="644" xlink:href="#t" />
        <use x="326.085938" y="644" xlink:href="#e" />
        <use x="354.730469" y="644" xlink:href="#s" />
        <use x="365.148438" y="644" xlink:href="#f" />
        <use x="385.191406" y="644" xlink:href="#c" />
        <use x="404.429688" y="644" xlink:href="#a" />
        <use x="418.234375" y="644" xlink:href="#a" />
        <use x="432.046875" y="644" xlink:href="#e" />
        <use x="70" y="672" xlink:href="#r" />
        <use x="82.183594" y="672" xlink:href="#a" />
        <use x="95.992188" y="672" xlink:href="#c" />
        <use x="115.226562" y="672" xlink:href="#q" />
        <use x="154.152344" y="672" xlink:href="#d" />
        <use x="167.535156" y="672" xlink:href="#p" />
        <use x="187.46875" y="672" xlink:href="#b" />
        <use x="216.207031" y="672" xlink:href="#o" />
        <use x="239.640625" y="672" xlink:href="#c" />
        <use x="258.878906" y="672" xlink:href="#g" />
        <use x="278.8125" y="672" xlink:href="#n" />
        <use x="308.492188" y="672" xlink:href="#m" />
        <use x="329.015625" y="672" xlink:href="#a" />
        <use x="342.820312" y="672" xlink:href="#c" />
        <use x="362.058594" y="672" xlink:href="#l" />
        <use x="371.65625" y="672" xlink:href="#b" />
        <use x="390.648438" y="672" xlink:href="#k" />
        <use x="407.242188" y="672" xlink:href="#d" />
    </g>
</svg>