<?xml version="1.0" encoding="UTF-8"?>
<svg width="700pt" height="700pt" version="1.1" viewBox="0 0 700 700" xmlns="http://www.w3.org/2000/svg">
 <g>
  <path d="m216 440.86c-0.76953 5.4531 1.0703 10.953 4.9688 14.84 4.668 4.668 33.297 28.465 129.04 28.465s124.3-23.707 129.04-28.465c3.8984-3.8867 5.7383-9.3867 4.9688-14.84l-11.898-83.207h-0.003907c-3.875-26.355-17.074-50.445-37.195-67.902s-45.832-27.125-72.469-27.25h-24.828c-26.637 0.125-52.348 9.793-72.469 27.25s-33.32 41.547-37.199 67.902z"/>
  <path d="m104.54 341.37-5.1328 28.934h-0.003906c-0.79297 4.5859 0.30078 9.2969 3.0352 13.066 3.5 5.1328 24.5 30.332 93.801 30.801l8.6328-59.734c4.3086-30.367 18.98-58.312 41.531-79.102-26.977-15.605-59.867-17.066-88.121-3.9141-28.254 13.148-48.316 39.262-53.742 69.949z"/>
  <path d="m597.57 383.37c2.7344-3.7695 3.8281-8.4805 3.0352-13.066l-5.1328-28.934h-0.003906c-5.4258-30.688-25.488-56.801-53.742-69.949-28.254-13.152-61.145-11.691-88.121 3.9141 22.551 20.789 37.223 48.734 41.531 79.102l8.6328 59.734c69.301-0.46875 90.301-25.668 93.801-30.801z"/>
  <path d="m134.17 186.67c-0.015625 17.02 6.7422 33.348 18.777 45.387 12.039 12.035 28.367 18.793 45.387 18.777 20.688 0.09375 40.113-9.9258 52.035-26.832-11.125-18.281-17.016-39.266-17.035-60.668-0.015625-9.4414 1.1602-18.852 3.5-28-12.773-9.5781-28.664-14.055-44.559-12.547-15.898 1.5117-30.664 8.8906-41.406 20.703-10.746 11.816-16.699 27.211-16.699 43.18z"/>
  <path d="m501.67 122.5c-13.879 0.035156-27.379 4.5352-38.5 12.832 2.3398 9.1484 3.5156 18.559 3.5 28-0.019531 21.402-5.9102 42.387-17.035 60.668 11.922 16.906 31.348 26.926 52.035 26.832 22.922 0 44.105-12.23 55.57-32.082 11.461-19.852 11.461-44.312 0-64.168-11.465-19.852-32.648-32.082-55.57-32.082z"/>
  <path d="m437.5 163.33c0 48.328-39.176 87.5-87.5 87.5s-87.5-39.172-87.5-87.5c0-48.324 39.176-87.5 87.5-87.5s87.5 39.176 87.5 87.5"/>
 </g>
</svg>
