<?xml version="1.0" encoding="UTF-8"?>
<svg width="100pt" height="100pt" version="1.1" viewBox="0 0 700 700"
    xmlns="http://www.w3.org/2000/svg">
    <g fill="#FF4136">
        <path
            d="m525 559.98c-57.891 0-105-47.039-105-104.84 0-57.844 47.109-104.86 105-104.86s105 47.039 105 104.86c0 57.797-47.109 104.84-105 104.84zm0-186.36c-45.035 0-81.668 36.562-81.668 81.527 0 44.941 36.633 81.504 81.668 81.504s81.668-36.562 81.668-81.504c0-44.965-36.633-81.527-81.668-81.527z" />
        <path d="m168.62 207.43 16.484-16.512 245.6 245.18-16.484 16.512z" />
        <path
            d="m155.73 560c-9.9648 0-19.32-3.875-26.367-10.922l-48.465-48.395c-7.0195-7.0195-10.895-16.355-10.895-26.293 0-9.9648 3.875-19.32 10.922-26.367l95.457-96.809c6.5586-6.6719 8.5625-16.285 5.0625-24.523-24.316-57.379-24.176-123.09 0.37109-180.25 25.387-59.176 75.086-105.16 139.93-129.52 63.488-23.824 131.93-22.285 187.86 4.2695 58.309 27.695 98.723 77.699 113.82 140.84 17.266 72.262-0.86328 154.49-47.32 214.55l-7.0469 6.9297-16.125-16.871 5.8789-5.625c41.09-53.316 57.609-127.98 41.93-193.55-13.418-56.141-49.328-100.59-101.15-125.18-50.215-23.871-112.02-25.176-169.63-3.5-58.844 22.074-103.85 63.586-126.72 116.86-22.051 51.355-22.168 110.39-0.32812 161.93 7.1875 16.941 3.2891 36.562-9.9414 50.004l-95.527 96.879c-2.6562 2.707-4.1289 6.207-4.1055 9.918 0 3.7109 1.4453 7.2109 4.0586 9.8242l48.488 48.395c5.2734 5.2969 14.465 5.2969 19.715 0l97.137-95.434c13.418-13.137 33.062-17.035 50.051-9.9414 35.863 15.145 75.25 19.809 113.82 13.578l3.7344 23.008c-42.934 7-86.73 1.75-126.61-15.074-8.3086-3.4766-17.965-1.4922-24.617 5.0625l-97.066 95.363c-7 6.9766-16.355 10.852-26.32 10.852z" />
    </g>
</svg>