<?xml version="1.0" encoding="UTF-8"?>
<svg width="700pt" height="700pt" version="1.1" viewBox="0 0 700 700"
    xmlns="http://www.w3.org/2000/svg" xmlns:xlink="http://www.w3.org/1999/xlink">

    <g>
        <path
            d="m602 343.48-65.48-133h37.32l-0.003906-69.793h-71.691l-28.578-58.051-247.13 0.003906-28.59 58.047h-71.68v69.793h37.324l-65.492 133h58.66l6.6875 133.88h34.867l-0.003906-133.88h303.57v133.88h34.883l6.6758-133.88zm-416.58 121.09h-9.918l-5.4727-109.65h15.383v109.65zm339.06 0h-9.9062v-109.65h15.383zm9.2344-311.1h27.34v4.7812h-27.34zm0 9.0508h27.34v10.926h-27.34zm0 15.191h27.34v10.922h-27.34zm0 15.195h27.34v4.7773h-27.34zm-36.324-39.438h32.055v4.7812l-32.055 0.003906zm0 9.0508h32.055v10.926h-32.055zm0 15.191h32.055v10.922h-32.055zm0 15.195h32.055v4.7773h-32.055zm-36.309-4.2695v-10.922h32.055v10.922zm32.055 4.2695v4.7773h-32.055v-4.7773zm-32.055-19.457v-10.926h32.055v10.926zm0-15.191v-4.7812h32.055v4.7812zm-226.69-62.836h231.21l22.281 45.266-134.64-0.003906-2.0234-44.684h-2.4531l-2.0234 44.684h-134.64zm190.37 93.215v-10.922h32.055v10.922zm32.047 4.2695v4.7773h-32.055v-4.7773zm-32.047-19.457v-10.926h32.055v10.926zm0-15.191v-4.7812h32.055v4.7812zm-36.328 30.379v-10.922h32.055v10.922zm32.055 4.2695v4.7773h-32.055v-4.7773zm-32.055-19.457v-10.926h32.055v10.926zm0-15.191v-4.7812h32.055v4.7812zm-36.297 30.379v-10.922h32.043v10.922zm32.043 4.2695v4.7773h-32.043v-4.7773zm-32.043-19.457v-10.926h32.043v10.926zm0-15.191v-4.7812h32.043v4.7812zm-36.328 30.379v-10.922h32.047v10.922zm32.047 4.2695v4.7773h-32.047v-4.7773zm-32.047-19.457v-10.926h32.047v10.926zm0-15.191v-4.7812h32.047v4.7812zm-36.316 30.379v-10.922h32.055v10.922zm32.055 4.2695v4.7773h-32.055v-4.7773zm-32.055-19.457v-10.926h32.055v10.926zm0-15.191v-4.7812h32.055v4.7812zm-36.316 30.379v-10.922h32.055v10.922zm32.055 4.2695v4.7773h-32.055v-4.7773zm-32.055-19.457v-10.926h32.055v10.926zm0-15.191v-4.7812h32.055v4.7812zm-36.316-4.7891h32.055v4.7812l-32.055 0.003906zm0 9.0508h32.055v10.926h-32.055zm0 15.191h32.055v10.922h-32.055zm0 15.195h32.055v4.7773h-32.055zm-36.309-39.438h32.047v4.7812h-32.055v-4.7812zm0 9.0508h32.055v10.926h-32.055zm0 15.191h32.055v10.922h-32.055zm0 15.195h32.055v4.7773h-32.055zm-31.602-39.438h27.34v4.7812h-27.34zm0 9.0508h27.34v10.926h-27.34zm0 15.191h27.34v10.922h-27.34zm0 19.973v-4.7773h27.34v4.7773zm38.797 12.793h344.5l59.191 120.2-462.89 0.003906z" />
        <path d="m346.75 215.55-4.0781 109.51h14.664l-4.0781-109.51z" />
        <use x="70" y="644" xlink:href="#u" />
        <use x="90.550781" y="644" xlink:href="#c" />
        <use x="104.359375" y="644" xlink:href="#b" />
        <use x="123.347656" y="644" xlink:href="#e" />
        <use x="142.242188" y="644" xlink:href="#a" />
        <use x="155.628906" y="644" xlink:href="#b" />
        <use x="174.617188" y="644" xlink:href="#j" />
        <use x="204.410156" y="644" xlink:href="#i" />
        <use x="224.453125" y="644" xlink:href="#h" />
        <use x="252.453125" y="644" xlink:href="#g" />
        <use x="280.3125" y="644" xlink:href="#e" />
        <use x="299.210938" y="644" xlink:href="#a" />
        <use x="312.59375" y="644" xlink:href="#b" />
        <use x="341.332031" y="644" xlink:href="#t" />
        <use x="364.765625" y="644" xlink:href="#d" />
        <use x="384" y="644" xlink:href="#c" />
        <use x="397.8125" y="644" xlink:href="#s" />
        <use x="416.0625" y="644" xlink:href="#e" />
        <use x="434.957031" y="644" xlink:href="#a" />
        <use x="448.34375" y="644" xlink:href="#f" />
        <use x="70" y="672" xlink:href="#r" />
        <use x="82.183594" y="672" xlink:href="#c" />
        <use x="95.992188" y="672" xlink:href="#d" />
        <use x="115.226562" y="672" xlink:href="#q" />
        <use x="154.152344" y="672" xlink:href="#a" />
        <use x="167.535156" y="672" xlink:href="#f" />
        <use x="187.46875" y="672" xlink:href="#b" />
        <use x="216.207031" y="672" xlink:href="#p" />
        <use x="239.640625" y="672" xlink:href="#d" />
        <use x="258.878906" y="672" xlink:href="#o" />
        <use x="278.8125" y="672" xlink:href="#n" />
        <use x="308.492188" y="672" xlink:href="#m" />
        <use x="329.015625" y="672" xlink:href="#c" />
        <use x="342.820312" y="672" xlink:href="#d" />
        <use x="362.058594" y="672" xlink:href="#l" />
        <use x="371.65625" y="672" xlink:href="#b" />
        <use x="390.648438" y="672" xlink:href="#k" />
        <use x="407.242188" y="672" xlink:href="#a" />
    </g>
</svg>