<?xml version="1.0" encoding="UTF-8"?>
<svg width="700pt" height="700pt" version="1.1" viewBox="0 0 700 700"
    xmlns="http://www.w3.org/2000/svg" xmlns:xlink="http://www.w3.org/1999/xlink">
    <g>
        <path
            d="m84.469 175.37c0 7.3672-5.9727 13.34-13.34 13.34-7.3672 0-13.34-5.9727-13.34-13.34 0-7.3672 5.9727-13.34 13.34-13.34 7.3672 0 13.34 5.9727 13.34 13.34" />
        <path
            d="m72.402 122.8h-2.543c-4.207 0-7.6211 3.418-7.6211 7.625v6.3516h17.785l0.003906-6.3477c-0.003906-4.2109-3.418-7.6289-7.625-7.6289z" />
        <path
            d="m148.16 328.19h403.68l63.812 166.51h27.988l6.4414-2.4688-62.863-164.04h34.418l25.656-108.41h-594.58l25.652 108.41h34.418l-62.867 164.04 6.4453 2.4688h27.984z" />
        <path
            d="m30.688 108.83-7.0977 31.957h-23.59v68.605h700v-68.605h-23.582l-7.1055-31.957h-9.3164v31.957h-620v-31.957zm598.18 45.254c11.75 0 21.277 9.5273 21.277 21.281 0 11.75-9.5273 21.281-21.277 21.281-11.754 0-21.281-9.5273-21.281-21.281 0-11.75 9.5273-21.281 21.281-21.281zm-79.68 0c11.75 0 21.281 9.5273 21.281 21.281 0 11.75-9.5312 21.281-21.281 21.281s-21.281-9.5273-21.281-21.281c0-11.75 9.5273-21.281 21.281-21.281zm-79.676 0c11.758 0 21.281 9.5273 21.281 21.281 0 11.75-9.5234 21.281-21.281 21.281-11.75 0-21.281-9.5273-21.281-21.281 0.003906-11.75 9.5312-21.281 21.281-21.281zm-79.672 0c11.75 0 21.277 9.5273 21.277 21.281 0 11.75-9.5273 21.281-21.277 21.281-11.754 0-21.285-9.5273-21.285-21.281 0-11.75 9.5312-21.281 21.285-21.281zm-79.68 0c11.754 0 21.277 9.5273 21.277 21.281 0 11.75-9.5234 21.281-21.277 21.281-11.75 0-21.281-9.5273-21.281-21.281-0.003906-11.75 9.5352-21.281 21.281-21.281zm-79.68 0c11.758 0 21.281 9.5273 21.281 21.281 0 11.75-9.5234 21.281-21.281 21.281-11.746 0-21.281-9.5273-21.281-21.281 0-11.75 9.5352-21.281 21.281-21.281zm-79.672 0c11.75 0 21.281 9.5273 21.281 21.281 0 11.75-9.5312 21.281-21.281 21.281s-21.277-9.5273-21.277-21.281c0-11.75 9.5234-21.281 21.277-21.281zm-79.68 0c11.754 0 21.285 9.5273 21.285 21.281 0 11.75-9.5312 21.281-21.285 21.281-11.75 0-21.281-9.5273-21.281-21.281 0-11.75 9.5312-21.281 21.281-21.281z" />
        <path
            d="m164.15 175.37c0 7.3672-5.9727 13.34-13.34 13.34-7.3672 0-13.34-5.9727-13.34-13.34 0-7.3672 5.9727-13.34 13.34-13.34 7.3672 0 13.34 5.9727 13.34 13.34" />
        <path
            d="m152.08 122.8h-2.5391c-4.207 0-7.625 3.418-7.625 7.625v6.3516h17.785v-6.3477c0-4.2109-3.4102-7.6289-7.6211-7.6289z" />
        <path
            d="m231.75 122.8h-2.5391c-4.207 0-7.625 3.418-7.625 7.625v6.3516h17.785v-6.3477c0-4.2109-3.4141-7.6289-7.6211-7.6289z" />
        <path
            d="m323.5 175.37c0 7.3672-5.9727 13.34-13.34 13.34-7.3672 0-13.34-5.9727-13.34-13.34 0-7.3672 5.9727-13.34 13.34-13.34 7.3672 0 13.34 5.9727 13.34 13.34" />
        <path
            d="m311.43 122.8h-2.5391c-4.2109 0-7.6211 3.418-7.6211 7.625v6.3516h17.785l-0.003907-6.3477c0.003907-4.2109-3.418-7.6289-7.6211-7.6289z" />
        <path
            d="m391.11 122.8h-2.543c-4.2109 0-7.6211 3.418-7.6211 7.625v6.3516h17.785l0.003907-6.3477c0-4.2109-3.418-7.6289-7.625-7.6289z" />
        <path
            d="m482.85 175.37c0 7.3672-5.9727 13.34-13.34 13.34-7.3672 0-13.336-5.9727-13.336-13.34 0-7.3672 5.9688-13.34 13.336-13.34 7.3672 0 13.34 5.9727 13.34 13.34" />
        <path
            d="m470.79 122.8h-2.543c-4.207 0-7.6172 3.418-7.6172 7.625v6.3516h17.781v-6.3477c0-4.2109-3.4102-7.6289-7.6211-7.6289z" />
        <path
            d="m550.46 122.8h-2.5391c-4.2109 0-7.625 3.418-7.625 7.625v6.3516h17.785l0.003906-6.3477c0-4.2109-3.4102-7.6289-7.625-7.6289z" />
        <path
            d="m627.6 122.8c-4.2109 0-7.6289 3.418-7.6289 7.625v6.3516h17.789v-6.3477c0-4.207-3.4141-7.625-7.625-7.625z" />
        <use y="540.585938" xlink:href="#u" />
        <use x="11.222656" y="540.585938" xlink:href="#e" />
        <use x="18.765625" y="540.585938" xlink:href="#b" />
        <use x="29.140625" y="540.585938" xlink:href="#d" />
        <use x="39.460938" y="540.585938" xlink:href="#c" />
        <use x="46.769531" y="540.585938" xlink:href="#b" />
        <use x="57.144531" y="540.585938" xlink:href="#k" />
        <use x="73.414063" y="540.585938" xlink:href="#j" />
        <use x="84.363281" y="540.585938" xlink:href="#g" />
        <use x="99.65625" y="540.585938" xlink:href="#i" />
        <use x="112.210938" y="540.585938" xlink:href="#d" />
        <use x="122.53125" y="540.585938" xlink:href="#f" />
        <use x="138.742188" y="540.585938" xlink:href="#t" />
        <use x="150.59375" y="540.585938" xlink:href="#h" />
        <use x="161.484375" y="540.585938" xlink:href="#a" />
        <use x="171.988281" y="540.585938" xlink:href="#a" />
        <use x="182.496094" y="540.585938" xlink:href="#f" />
        <use x="198.710938" y="540.585938" xlink:href="#s" />
        <use x="208.457031" y="540.585938" xlink:href="#d" />
        <use x="218.777344" y="540.585938" xlink:href="#g" />
        <use y="555.878906" xlink:href="#r" />
        <use x="6.652344" y="555.878906" xlink:href="#e" />
        <use x="14.195312" y="555.878906" xlink:href="#a" />
        <use x="24.703125" y="555.878906" xlink:href="#q" />
        <use x="45.964844" y="555.878906" xlink:href="#c" />
        <use x="53.273438" y="555.878906" xlink:href="#h" />
        <use x="64.164062" y="555.878906" xlink:href="#b" />
        <use x="79.859375" y="555.878906" xlink:href="#p" />
        <use x="92.660156" y="555.878906" xlink:href="#a" />
        <use x="103.167969" y="555.878906" xlink:href="#o" />
        <use x="114.054688" y="555.878906" xlink:href="#f" />
        <use x="130.269531" y="555.878906" xlink:href="#n" />
        <use x="141.476562" y="555.878906" xlink:href="#e" />
        <use x="149.019531" y="555.878906" xlink:href="#a" />
        <use x="159.527344" y="555.878906" xlink:href="#m" />
        <use x="164.769531" y="555.878906" xlink:href="#b" />
        <use x="175.140625" y="555.878906" xlink:href="#l" />
        <use x="184.207031" y="555.878906" xlink:href="#c" />
    </g>
</svg>